# xmcd
#
# Track frame offsets:
#   150
#   14325
#   29420
#   44138
#   56588
#   70393
#   83780
#   99410
#   113480
#   127628
#
# Disc length: 1910 seconds
#
# Revision: 3
# Processed by: cddbd v1.5PL3 Copyright (c) Steve Scherf et al.
# Submitted via: Media_Universe 3.0
#
DISCID=7c07740a
DTITLE=Linda Davis - Shoot For The Moon
DYEAR=1994
DGENRE=Country
TTITLE0=Shoot for the Moon
TTITLE1=Company Ttime
TTITLE2=If Promises Where Gold
TTITLE3=Love Didn't Do It
TTITLE4=He's in Dallas
TTITLE5=When You Took Your Love Away
TTITLE6=How Can I Make You Love Me
TTITLE7=Don't You Want My Love
TTITLE8=In Pictures
TTITLE9=A Family Tie
EXTD=YEAR: 1994 ID3G: 2
EXTT0=
EXTT1=
EXTT2=
EXTT3=
EXTT4=
EXTT5=
EXTT6=
EXTT7=
EXTT8=
EXTT9=
PLAYORDER=
